<svg width="211" height="47" viewBox="0 0 211 47" fill="none" xmlns="http://www.w3.org/2000/svg">
<mask id="mask0_21_57" style="mask-type:luminance" maskUnits="userSpaceOnUse" x="0" y="0" width="47" height="47">
<path d="M47 0H0V47H47V0Z" fill="white"/>
</mask>
<g mask="url(#mask0_21_57)">
<path d="M23.5059 47C36.4846 47 47.0058 36.4788 47.0058 23.5C47.0058 10.5213 36.4846 0 23.5059 0C10.5272 0 0.00585938 10.5213 0.00585938 23.5C0.00585938 36.4788 10.5272 47 23.5059 47Z" fill="#0081FF"/>
<path d="M16.9278 26.8965H10.6881C10.4687 26.8965 10.3308 26.6593 10.4399 26.4686L20.435 9.00183H35.0616C35.2988 9.00183 35.433 9.27398 35.2877 9.46214L28.1415 18.731C27.9969 18.9191 28.1305 19.1913 28.3677 19.1913H35.9994C36.2568 19.1913 36.383 19.5046 36.1973 19.6829L14.4565 40.6078C14.2499 40.8066 13.9122 40.6117 13.9808 40.3333L17.2055 27.2502C17.2496 27.0705 17.1136 26.8965 16.9278 26.8965Z" fill="white"/>
</g>
<path d="M63.5759 7.34375V34.8559H58.75V7.34375H63.5759Z" fill="#1179FC"/>
<path d="M73.3025 22.7656V34.8559H68.5937V14.2218H73.0944V17.728H73.3285C73.7881 16.5726 74.521 15.6547 75.5269 14.9741C76.5414 14.2934 77.7945 13.9531 79.2862 13.9531C80.6649 13.9531 81.866 14.2576 82.8893 14.8667C83.9213 15.4756 84.7191 16.3578 85.2828 17.5131C85.855 18.6684 86.1369 20.0699 86.1282 21.7178V34.8559H81.4194V22.4701C81.4194 21.091 81.0725 20.0117 80.3788 19.2325C79.6938 18.4534 78.7441 18.0639 77.53 18.0639C76.7062 18.0639 75.9734 18.2519 75.3317 18.628C74.6987 18.9952 74.2001 19.5281 73.8358 20.2266C73.4802 20.9253 73.3025 21.7716 73.3025 22.7656Z" fill="#1179FC"/>
<path d="M106.707 19.6758L102.414 20.1595C102.293 19.7117 102.08 19.2907 101.777 18.8968C101.482 18.5027 101.083 18.1847 100.58 17.943C100.077 17.7011 99.4613 17.5802 98.7329 17.5802C97.753 17.5802 96.9292 17.7996 96.2615 18.2385C95.6023 18.6774 95.2771 19.2461 95.2858 19.9446C95.2771 20.5446 95.4896 21.0326 95.9232 21.4088C96.3654 21.7849 97.0939 22.094 98.1086 22.3357L101.517 23.088C103.407 23.509 104.812 24.1762 105.731 25.0896C106.659 26.0032 107.127 27.1988 107.136 28.6765C107.127 29.975 106.759 31.1213 106.03 32.1155C105.311 33.1006 104.309 33.8708 103.025 34.426C101.742 34.9814 100.268 35.259 98.6028 35.259C96.1573 35.259 94.1888 34.7305 92.6972 33.6737C91.2057 32.608 90.3168 31.1259 90.0306 29.2272L94.6225 28.7705C94.8306 29.7019 95.2728 30.4049 95.9492 30.8796C96.6256 31.3543 97.5058 31.5915 98.5899 31.5915C99.7085 31.5915 100.606 31.3543 101.282 30.8796C101.968 30.4049 102.31 29.8183 102.31 29.1197C102.31 28.5287 102.089 28.0406 101.647 27.6555C101.213 27.2704 100.537 26.9749 99.6174 26.7688L96.2093 26.0301C94.2929 25.6181 92.875 24.924 91.9558 23.9478C91.0365 22.9626 90.5814 21.7178 90.59 20.2132C90.5814 18.9414 90.9152 17.8399 91.5916 16.9085C92.2766 15.9683 93.2263 15.2427 94.4403 14.7323C95.6631 14.2128 97.0722 13.9531 98.6679 13.9531C101.009 13.9531 102.852 14.4681 104.196 15.498C105.549 16.5278 106.386 17.9205 106.707 19.6758Z" fill="#1179FC"/>
<path d="M120.996 14.2218V17.9832H109.51V14.2218H120.996ZM112.346 9.2782H117.054V28.6496C117.054 29.3033 117.15 29.8049 117.341 30.1542C117.54 30.4945 117.8 30.7273 118.121 30.8527C118.442 30.9781 118.797 31.0407 119.188 31.0407C119.482 31.0407 119.751 31.0184 119.994 30.9736C120.246 30.9288 120.436 30.8885 120.567 30.8527L121.36 34.6544C121.109 34.744 120.749 34.8426 120.28 34.9499C119.821 35.0574 119.257 35.1202 118.589 35.1381C117.41 35.1739 116.348 34.9903 115.402 34.5873C114.457 34.1753 113.707 33.5395 113.152 32.6797C112.606 31.8199 112.337 30.7452 112.346 29.4556V9.2782Z" fill="#1179FC"/>
<path d="M130.683 35.2723C129.417 35.2723 128.277 35.0395 127.262 34.5738C126.256 34.0992 125.459 33.4007 124.869 32.4782C124.288 31.5558 123.997 30.4184 123.997 29.066C123.997 27.9018 124.205 26.9391 124.622 26.1778C125.038 25.4166 125.606 24.8075 126.326 24.3508C127.046 23.8941 127.856 23.5492 128.758 23.3164C129.669 23.0746 130.61 22.9 131.581 22.7925C132.752 22.6671 133.701 22.5552 134.43 22.4566C135.158 22.3492 135.687 22.188 136.017 21.9731C136.355 21.7491 136.524 21.4044 136.524 20.9386V20.858C136.524 19.846 136.233 19.0625 135.652 18.5071C135.071 17.9519 134.235 17.6742 133.142 17.6742C131.988 17.6742 131.074 17.934 130.397 18.4534C129.73 18.9729 129.279 19.5864 129.044 20.2939L124.648 19.6489C124.995 18.3952 125.567 17.3474 126.365 16.5055C127.163 15.6547 128.138 15.0189 129.292 14.5979C130.445 14.1681 131.72 13.9531 133.116 13.9531C134.078 13.9531 135.037 14.0696 135.991 14.3024C136.944 14.5352 137.816 14.9203 138.605 15.4577C139.394 15.986 140.027 16.707 140.504 17.6206C140.99 18.534 141.233 19.6758 141.233 21.0462V34.8559H136.706V32.0214H136.55C136.264 32.5946 135.861 33.1319 135.34 33.6335C134.829 34.1261 134.183 34.5246 133.402 34.8291C132.63 35.1246 131.724 35.2723 130.683 35.2723ZM131.906 31.699C132.851 31.699 133.671 31.5064 134.365 31.1213C135.058 30.7273 135.592 30.2079 135.965 29.563C136.346 28.9182 136.537 28.2153 136.537 27.454V25.0225C136.389 25.1479 136.138 25.2643 135.782 25.3718C135.436 25.4793 135.045 25.5733 134.612 25.6539C134.178 25.7344 133.749 25.8061 133.324 25.8688C132.899 25.9315 132.53 25.9853 132.218 26.0301C131.516 26.1285 130.887 26.2897 130.332 26.5136C129.777 26.7376 129.339 27.051 129.018 27.454C128.697 27.8481 128.537 28.3585 128.537 28.9855C128.537 29.881 128.854 30.5572 129.487 31.014C130.12 31.4706 130.926 31.699 131.906 31.699Z" fill="#1179FC"/>
<path d="M150.676 22.7656V34.8559H145.968V14.2218H150.469V17.728H150.703C151.162 16.5726 151.895 15.6547 152.901 14.9741C153.915 14.2934 155.169 13.9531 156.66 13.9531C158.039 13.9531 159.24 14.2576 160.263 14.8667C161.295 15.4756 162.093 16.3578 162.657 17.5131C163.23 18.6684 163.512 20.0699 163.503 21.7178V34.8559H158.794V22.4701C158.794 21.091 158.446 20.0117 157.753 19.2325C157.068 18.4534 156.118 18.0639 154.905 18.0639C154.081 18.0639 153.348 18.2519 152.706 18.628C152.073 18.9952 151.574 19.5281 151.209 20.2266C150.854 20.9253 150.676 21.7716 150.676 22.7656Z" fill="#1179FC"/>
<path d="M178.267 14.2218V17.9832H166.78V14.2218H178.267ZM169.616 9.2782H174.324V28.6496C174.324 29.3033 174.42 29.8049 174.611 30.1542C174.811 30.4945 175.071 30.7273 175.391 30.8527C175.712 30.9781 176.068 31.0407 176.459 31.0407C176.752 31.0407 177.021 31.0184 177.265 30.9736C177.516 30.9288 177.707 30.8885 177.836 30.8527L178.631 34.6544C178.378 34.744 178.018 34.8426 177.551 34.9499C177.092 35.0574 176.528 35.1202 175.859 35.1381C174.68 35.1739 173.618 34.9903 172.672 34.5873C171.728 34.1753 170.977 33.5395 170.422 32.6797C169.876 31.8199 169.607 30.7452 169.616 29.4556V9.2782Z" fill="#1179FC"/>
<path d="M187.342 7.34375V34.8559H182.633V7.34375H187.342Z" fill="#1179FC"/>
<path d="M195.112 42.5937C194.47 42.5937 193.875 42.54 193.329 42.4325C192.791 42.3341 192.362 42.2176 192.042 42.0832L193.135 38.295C193.819 38.5009 194.43 38.5995 194.968 38.5905C195.505 38.5816 195.978 38.4069 196.387 38.0666C196.802 37.7353 197.153 37.1799 197.44 36.4008L197.844 35.2858L190.598 14.2218H195.592L200.198 29.8049H200.405L205.023 14.2218H210.031L202.031 37.3546C201.658 38.4472 201.164 39.3831 200.549 40.1622C199.932 40.9504 199.179 41.5504 198.286 41.9623C197.4 42.3833 196.342 42.5937 195.112 42.5937Z" fill="#1179FC"/>
</svg>
