<svg width="164" height="47" viewBox="0 0 164 47" fill="none" xmlns="http://www.w3.org/2000/svg">
<path fill-rule="evenodd" clip-rule="evenodd" d="M8.36925 0H38.6308C43.2529 0 47 3.74705 47 8.36925V38.6309C47 43.253 43.2529 47 38.6308 47H8.36925C3.74704 47 0 43.253 0 38.6309V8.36925C0 3.74705 3.74704 0 8.36925 0Z" fill="#316BFF"/>
<path d="M22.5462 12.6328H33.172C33.8533 12.6328 34.4057 13.1851 34.4057 13.8665V15.7798C34.4057 16.4612 33.8533 17.0135 33.172 17.0135H22.5462C21.8648 17.0135 21.3125 16.4612 21.3125 15.7798V13.8665C21.3125 13.1851 21.8648 12.6328 22.5462 12.6328Z" fill="white"/>
<path d="M22.554 21.3574H30.9888C31.6702 21.3574 32.2225 21.9097 32.2225 22.5911V24.4959C32.2225 25.1771 31.6702 25.7295 30.9888 25.7295H22.554C21.8726 25.7295 21.3203 25.1771 21.3203 24.4959V22.5911C21.3203 21.9097 21.8726 21.3574 22.554 21.3574Z" fill="white"/>
<path d="M34.4111 31.3112V33.2183C34.4111 33.8993 33.8584 34.4519 33.1774 34.4519H17.4219C14.8282 34.2861 12.7557 32.2136 12.5898 29.6199V13.7825C12.5898 13.1015 13.1425 12.5488 13.8235 12.5488H15.7131C16.394 12.5488 16.9468 13.1015 16.9468 13.7825V26.9157C16.9468 28.6883 18.2213 30.0775 19.9939 30.0775H33.1774C33.8584 30.0775 34.4111 30.6301 34.4111 31.3112Z" fill="white"/>
<path d="M129.134 10.6387H127.205C126.63 10.6387 126.164 11.1045 126.164 11.6791V13.6085C126.164 14.1831 126.63 14.6489 127.205 14.6489H129.134C129.709 14.6489 130.174 14.1831 130.174 13.6085V11.6791C130.174 11.1045 129.709 10.6387 129.134 10.6387Z" fill="white"/>
<path d="M59.2886 11.4369V35.3053C59.2886 35.8796 58.8225 36.3457 58.2482 36.3457H56.5053C55.931 36.3457 55.4648 35.8796 55.4648 35.3053V11.4369C55.4648 10.8626 55.931 10.3965 56.5053 10.3965H58.2482C58.8225 10.3965 59.2886 10.8626 59.2886 11.4369Z" fill="white"/>
<path d="M66.751 28.6244C67.0856 31.4094 69.3862 33.2273 72.7272 33.2273C74.2753 33.2273 76.1582 32.7362 77.3867 31.8422C77.7979 31.5426 78.3622 31.5775 78.7284 31.9322L79.7423 32.916C80.1867 33.3471 80.1634 34.0729 79.6839 34.4625C77.7762 36.0139 75.0894 36.7913 72.6523 36.7913C66.6378 36.7913 62.7773 32.9676 62.7773 27.1028C62.7773 21.2382 66.6761 17.5625 72.3926 17.5625C78.1092 17.5625 81.9347 20.8419 81.6666 27.6271C81.6449 28.1848 81.1838 28.626 80.6261 28.626H66.7493L66.751 28.6244ZM77.9244 25.3948C77.7013 22.4999 75.5855 20.9767 72.5041 20.9767C69.7191 20.9767 67.4185 22.4983 66.8242 25.3948H77.9244Z" fill="white"/>
<path d="M97.2618 35.3051V25.6848C97.2618 23.2726 95.3091 21.2634 92.897 21.3117C90.2417 21.3633 88.5737 23.6073 88.5737 26.2857V35.3051C88.5737 35.8794 88.1076 36.3455 87.5332 36.3455H85.7903C85.2161 36.3455 84.75 35.8794 84.75 35.3051V19.0477C84.75 18.4733 85.2161 18.0073 85.7903 18.0073H87.3784C87.9112 18.0073 88.3574 18.4085 88.414 18.9378L88.5755 20.4577C89.6141 18.4534 91.7683 17.7109 93.6977 17.7109C96.0365 17.7109 98.412 18.6765 99.4524 21.3866C100.937 18.6765 103.24 17.7492 105.727 17.7492C110.776 17.7492 113.486 20.942 113.486 26.2142V35.3085C113.486 35.8826 113.02 36.3488 112.445 36.3488H110.666C110.092 36.3488 109.625 35.8826 109.625 35.3085V25.4816C109.625 23.236 107.834 21.3549 105.589 21.3517C102.873 21.3467 101.124 23.5756 101.124 26.2891V35.3085C101.124 35.8826 100.658 36.3488 100.083 36.3488H98.3039C97.7296 36.3488 97.2635 35.8826 97.2635 35.3085L97.2618 35.3051Z" fill="white"/>
<path d="M121.652 11.4369V35.3053C121.652 35.8796 121.186 36.3457 120.612 36.3457H118.869C118.294 36.3457 117.828 35.8796 117.828 35.3053V11.4369C117.828 10.8626 118.294 10.3965 118.869 10.3965H120.612C121.186 10.3965 121.652 10.8626 121.652 11.4369Z" fill="white"/>
<path d="M126.258 19.0091V35.3048C126.258 35.8792 126.724 36.3453 127.298 36.3453H129.041C129.616 36.3453 130.082 35.8792 130.082 35.3048V19.0091C130.082 18.4349 129.616 17.9688 129.041 17.9688H127.298C126.724 17.9688 126.258 18.4349 126.258 19.0091Z" fill="white"/>
<path d="M146.874 21.7773C146.528 22.1834 145.933 22.2484 145.494 21.9437C144.254 21.0847 142.917 20.8266 141.402 20.8266C139.063 20.79 137.503 21.569 137.503 23.0174C137.54 24.539 139.136 25.1332 141.475 25.3563C144.853 25.6526 149.271 26.395 149.235 31.1111C149.198 34.5271 146.19 36.9026 141.439 36.9026C138.727 36.9026 136.013 36.3449 133.726 34.1841C133.347 33.8246 133.3 33.2352 133.611 32.8141L134.392 31.757C134.742 31.2842 135.421 31.1876 135.875 31.5606C137.525 32.9157 139.669 33.4917 141.514 33.5232C143.333 33.5232 145.374 32.8557 145.412 31.1477C145.449 29.5148 143.891 28.8838 141.181 28.6225C137.728 28.2878 133.756 27.1742 133.72 23.129C133.72 19.082 137.915 17.5605 141.331 17.5605C143.749 17.5605 145.704 18.0233 147.498 19.3018C147.996 19.6564 148.084 20.3623 147.688 20.8266L146.877 21.7773H146.874Z" fill="white"/>
<path d="M158.219 13.93V18.0817H162.524C163.099 18.0817 163.565 18.5478 163.565 19.1222V20.3458C163.565 20.92 163.099 21.3861 162.524 21.3861H158.181V30.1108C158.181 32.0419 159.035 33.1171 160.816 33.1171C161.262 33.1171 161.747 33.024 162.225 32.8691C162.757 32.696 163.33 32.999 163.51 33.53L163.946 34.8102C164.131 35.3545 163.841 35.9505 163.295 36.1321C162.406 36.4283 161.549 36.5698 160.592 36.5698C156.62 36.6813 154.356 34.4173 154.356 30.1108V21.3861H151.869C151.294 21.3861 150.828 20.92 150.828 20.3458V19.1222C150.828 18.5478 151.294 18.0817 151.869 18.0817H154.356V14.1181C154.356 13.5854 154.757 13.1393 155.286 13.0827L157.066 12.8946C157.68 12.8296 158.216 13.3107 158.216 13.93H158.219Z" fill="white"/>
</svg>
