<svg width="47" height="47" viewBox="0 0 47 47" fill="none" xmlns="http://www.w3.org/2000/svg">
<path fill-rule="evenodd" clip-rule="evenodd" d="M8.36925 0H38.6308C43.2529 0 47 3.74705 47 8.36925V38.6309C47 43.253 43.2529 47 38.6308 47H8.36925C3.74704 47 0 43.253 0 38.6309V8.36925C0 3.74705 3.74704 0 8.36925 0Z" fill="#316BFF"/>
<path d="M22.5444 12.6325H33.1703C33.8515 12.6325 34.404 13.1848 34.404 13.8662V15.7795C34.404 16.4609 33.8515 17.0132 33.1703 17.0132H22.5444C21.863 17.0132 21.3107 16.4609 21.3107 15.7795V13.8662C21.3107 13.1848 21.863 12.6325 22.5444 12.6325Z" fill="white"/>
<path d="M22.5546 21.358H30.9894C31.6708 21.358 32.2231 21.9103 32.2231 22.5917V24.4965C32.2231 25.1777 31.6708 25.7302 30.9894 25.7302H22.5546C21.8732 25.7302 21.3209 25.1777 21.3209 24.4965V22.5917C21.3209 21.9103 21.8732 21.358 22.5546 21.358Z" fill="white"/>
<path d="M34.4107 31.3107V33.2178C34.4107 33.8989 33.8579 34.4515 33.177 34.4515H17.4215C14.8278 34.2857 12.7552 32.2131 12.5894 29.6194V13.7821C12.5894 13.1011 13.1421 12.5484 13.8231 12.5484H15.7126C16.3936 12.5484 16.9463 13.1011 16.9463 13.7821V26.9153C16.9463 28.6879 18.2209 30.0771 19.9935 30.0771H33.177C33.8579 30.0771 34.4107 30.6297 34.4107 31.3107Z" fill="white"/>
</svg>
