<?xml version="1.0" encoding="UTF-8"?>
<svg id="Layer_1" data-name="Layer 1" xmlns="http://www.w3.org/2000/svg" viewBox="0 0 200 200">
  <defs>
    <style>
      .cls-2 {
        fill: #ff6e40;
      }
    </style>
  </defs>
  <g>
    <path class="cls-2" d="M125.73,165.22l-5.42,1.88-4.83,1.28-3.6.72-.94.16-1.27.16-.22-6.16c-.05-30.55,21.41-45.26,40.68-61.12-48.65.76-66.83-97.73-14.31-64.82,54.93,34.42,42.1,106.51-10.1,127.9Z"/>
    <path class="cls-2" d="M74.27,34.78l5.42-1.88,4.83-1.28,3.6-.72.94-.16,1.27-.16.22,6.16c.05,30.55-21.41,45.26-40.68,61.12,48.65-.76,66.83,97.73,14.31,64.82-54.93-34.42-42.1-106.51,10.1-127.9Z"/>
  </g>
</svg>

