<svg width="223" height="47" viewBox="0 0 223 47" fill="none" xmlns="http://www.w3.org/2000/svg">
<path d="M0 5.91416C0 2.64786 2.64787 0 5.91416 0H41.0857C44.3521 0 47 2.64786 47 5.91416V41.0859C47 44.3521 44.3521 47 41.0857 47H5.91416C2.64787 47 0 44.3521 0 41.0859V5.91416Z" fill="#6E58F1"/>
<path d="M6.78378 19.8801C6.78378 15.826 10.0578 12.5395 14.0965 12.5395H14.517C16.2254 12.5395 17.6103 13.9296 17.6103 15.6445V24.1156C17.6103 25.8306 16.2254 27.2206 14.517 27.2206H14.0965C10.0578 27.2206 6.78378 23.9343 6.78378 19.8801Z" fill="white"/>
<path d="M19.2773 13.8377C19.2773 13.0505 19.7379 12.3366 20.4537 12.0147L31.0987 7.2269C32.4154 6.63471 33.9026 7.60172 33.9026 9.04999V30.8729C33.9026 32.3305 32.3978 33.2975 31.0793 32.6871L20.4342 27.7605C19.7289 27.4343 19.2773 26.7257 19.2773 25.9464V24.936C19.2773 24.1049 19.7899 23.3605 20.5646 23.067L26.4978 20.819C27.356 20.4938 27.356 19.2752 26.4978 18.9499L20.5646 16.7019C19.7899 16.4083 19.2773 15.6641 19.2773 14.8329V13.8377Z" fill="white"/>
<path d="M40.2064 21.6312V21.1863C40.2064 18.7293 38.2222 16.7374 35.7746 16.7374C35.6521 16.7374 35.5529 16.8369 35.5529 16.9599V25.8577C35.5529 25.9804 35.6521 26.0801 35.7746 26.0801C38.2222 26.0801 40.2064 24.0882 40.2064 21.6312Z" fill="white"/>
<path d="M14.0908 30.062C14.0908 29.6251 14.4435 29.2711 14.8786 29.2711H19.001C19.4362 29.2711 19.789 29.6251 19.789 30.062V37.0885C19.789 38.6679 18.5134 39.9485 16.94 39.9485C15.3664 39.9485 14.0908 38.6679 14.0908 37.0885V30.062Z" fill="white"/>
<path d="M69.4335 24.6657C71.3917 24.8852 72.4797 25.9003 72.4797 27.5462C72.4797 28.8628 71.3917 29.9875 70.0047 29.9875C68.808 29.9875 67.8561 29.6858 66.9313 28.5063L63.45 31.0848C65.3811 33.2246 67.6928 34.075 70.0047 34.075C73.5677 34.075 76.8586 31.2221 76.8586 27.2445C76.8586 23.2942 74.0028 20.9351 70.5487 20.7156C68.4 20.5785 67.72 19.7281 67.72 18.7954C67.72 17.6707 68.4817 16.9848 69.5967 16.9848C70.3039 16.9848 71.2013 17.4238 71.7453 17.9999L75.0635 15.5584C73.5133 13.6931 71.6093 12.925 69.5967 12.925C66.7953 12.925 63.6403 15.3664 63.6403 18.8229C63.6403 22.0323 65.925 24.2543 69.4335 24.6657Z" fill="#6E58F1"/>
<path d="M92.51 26.8056C92.51 24.9678 93.7882 23.459 95.4746 23.459C97.0248 23.459 98.3031 24.6934 98.3031 26.8056V33.7186H102.138V26.8056C102.138 22.8006 100.098 19.5636 95.8826 19.5636C94.4681 19.5636 92.2923 20.0026 90.9868 21.7581C90.1709 20.4963 88.3486 19.5636 86.336 19.5636C85.1393 19.5636 83.589 20.0575 82.9634 20.8255V19.8653H79.1013V33.7186H82.9634V26.8056C82.9634 24.9678 84.2417 23.459 85.6832 23.459C87.424 23.459 88.6478 24.4192 88.6478 26.8056V33.7186H92.51V26.8056Z" fill="#6E58F1"/>
<path d="M114.197 19.8653V20.8255C113.599 20.1671 112.076 19.5636 110.852 19.5636C107.18 19.5636 104.107 22.8006 104.107 26.8056C104.107 30.7558 107.099 34.0203 110.852 34.0203C112.103 34.0203 113.599 33.5265 114.197 32.7309V33.7186H118.059V19.8653H114.197ZM111.233 30.1523C109.465 30.1523 108.023 28.7808 108.023 26.8056C108.023 24.8579 109.465 23.459 111.233 23.459C113.028 23.459 114.36 24.8579 114.36 26.8056C114.36 28.7808 113.028 30.1523 111.233 30.1523Z" fill="#6E58F1"/>
<path d="M128.638 19.6186C128.284 19.5636 128.011 19.5636 127.686 19.5636C126.625 19.5636 125.483 19.9203 124.639 20.8255V19.8653H120.777V33.7186H124.639V26.8056C124.639 24.5837 125.918 23.459 127.413 23.459C127.848 23.459 128.257 23.5137 128.638 23.651V19.6186Z" fill="#6E58F1"/>
<path d="M138.397 23.4586V19.865H135.133V15.2291L131.271 18.0546V19.865H129.204V23.4586H131.271V27.9849C131.271 31.5785 134.208 34.02 138.315 34.02V30.152C136.548 30.152 135.133 29.4387 135.133 27.8752V23.4586H138.397Z" fill="#6E58F1"/>
<path d="M140.165 13.2812V33.718H144.027V13.2812H140.165Z" fill="#6E58F1"/>
<path d="M156.604 28.7533C155.978 29.7407 154.809 30.1523 153.638 30.1523C153.231 30.1523 152.85 30.125 152.496 29.9877L160.167 24.4465C159.323 21.868 156.712 19.5636 153.313 19.5636C149.368 19.5636 146.186 22.8006 146.186 26.8056C146.186 30.7558 149.505 34.0203 153.638 34.0203C156.087 34.0203 158.507 32.8956 159.678 31.1398L156.604 28.7533ZM150.103 26.8056C150.103 24.8579 151.544 23.459 153.313 23.459C154.047 23.459 154.672 23.7058 155.216 24.1174L150.212 27.7108C150.13 27.4366 150.103 27.1348 150.103 26.8056Z" fill="#6E58F1"/>
<path d="M171.626 19.8653V20.8255C171.027 20.1671 169.504 19.5636 168.28 19.5636C164.609 19.5636 161.535 22.8006 161.535 26.8056C161.535 30.7558 164.527 34.0203 168.28 34.0203C169.531 34.0203 171.027 33.5265 171.626 32.7309V33.7186H175.487V19.8653H171.626ZM168.661 30.1523C166.893 30.1523 165.452 28.7808 165.452 26.8056C165.452 24.8579 166.893 23.459 168.661 23.459C170.456 23.459 171.788 24.8579 171.788 26.8056C171.788 28.7808 170.456 30.1523 168.661 30.1523Z" fill="#6E58F1"/>
<path d="M187.727 13.2812V20.8251C187.128 20.1666 185.605 19.5631 184.381 19.5631C180.71 19.5631 177.636 22.8002 177.636 26.8051C177.636 30.7554 180.628 34.0198 184.381 34.0198C185.632 34.0198 187.128 33.526 187.727 32.7304V33.718H191.588V13.2812H187.727ZM184.762 30.1519C182.994 30.1519 181.553 28.7802 181.553 26.8051C181.553 24.8575 182.994 23.4585 184.762 23.4585C186.557 23.4585 187.889 24.8575 187.889 26.8051C187.889 28.7802 186.557 30.1519 184.762 30.1519Z" fill="#6E58F1"/>
<path d="M196.667 29.8776C195.415 29.8776 194.573 30.8102 194.573 31.9897C194.573 33.1145 195.415 34.0747 196.667 34.0747C197.945 34.0747 198.761 33.1145 198.761 31.9897C198.761 30.8102 197.917 29.8776 196.667 29.8776Z" fill="#6E58F1"/>
<path d="M211.28 19.8653V20.8255C210.682 20.1671 209.159 19.5636 207.936 19.5636C204.263 19.5636 201.192 22.8006 201.192 26.8056C201.192 30.7558 204.182 34.0203 207.936 34.0203C209.187 34.0203 210.682 33.5265 211.28 32.7309V33.7186H215.144V19.8653H211.28ZM208.317 30.1523C206.55 30.1523 205.108 28.7808 205.108 26.8056C205.108 24.8579 206.55 23.459 208.317 23.459C210.112 23.459 211.445 24.8579 211.445 26.8056C211.445 28.7808 210.112 30.1523 208.317 30.1523Z" fill="#6E58F1"/>
<path d="M219.76 17.4238C221.067 17.4238 222.073 16.4088 222.073 15.2018C222.073 14.0771 221.067 13.0621 219.76 13.0621C218.565 13.0621 217.531 14.1045 217.531 15.2018C217.531 16.4088 218.565 17.4238 219.76 17.4238ZM221.719 19.8651H217.857V33.7184H221.719V19.8651Z" fill="#6E58F1"/>
</svg>
